# xmcd CD database file
#
# Track frame offsets:
#	150
#	16040
#	40967
#	56870
#
# Disc length: 1090 seconds
#
# Revision: 0
# Processed by: cddbd v1.5.1PL0 Copyright (c) Steve Scherf et al.
# Submitted via: CDex 1.51
#
DISCID=2b044004
DTITLE=島田歌穂 - ステップ・バイ・ステップ
DYEAR=1992
DGENRE=J-Pop
TTITLE0=ステップ・バイ・ステップ
TTITLE1=FRIENDS
TTITLE2=ステップ・バイ・ステップ（オリジナル・カラオケ）
TTITLE3=FRIENDS（オリジナル・カラオケ）
EXTD=YEAR: 1992
EXTT0=
EXTT1=
EXTT2=
EXTT3=
PLAYORDER=
